<svg xmlns="http://www.w3.org/2000/svg" viewBox="0 0 180 180" fill="none">
  <!-- Background -->
  <rect width="180" height="180" rx="32" fill="#0d2240"/>
  <!-- Water waves -->
  <path d="M20 115 Q50 105 90 115 Q130 125 160 115" stroke="#c9a432" stroke-width="5" fill="none" stroke-linecap="round"/>
  <path d="M20 130 Q50 120 90 130 Q130 140 160 130" stroke="#c9a432" stroke-width="3" fill="none" stroke-linecap="round" opacity="0.5"/>
  <!-- Tanker hull -->
  <path d="M30 100 L150 100 L162 112 L18 112 Z" fill="#c9a432"/>
  <!-- Superstructure -->
  <rect x="118" y="80" width="26" height="20" rx="2" fill="#c9a432" opacity="0.95"/>
  <!-- Funnel -->
  <rect x="124" y="64" width="12" height="18" rx="2" fill="#c9a432"/>
  <!-- Cargo tanks -->
  <rect x="42" y="92" width="18" height="8" rx="1" fill="#0d2240" opacity="0.4"/>
  <rect x="70" y="92" width="18" height="8" rx="1" fill="#0d2240" opacity="0.4"/>
  <rect x="98" y="92" width="16" height="8" rx="1" fill="#0d2240" opacity="0.4"/>
  <!-- Oil drop -->
  <path d="M58 30 Q58 16 72 14 Q86 14 86 30 Q86 46 72 52 Q58 46 58 30 Z" fill="#c9a432" opacity="0.9"/>
  <!-- App name -->
  <text x="90" y="168" font-family="monospace" font-size="13" font-weight="bold" fill="#c9a432" text-anchor="middle" letter-spacing="1">HUMMUS</text>
</svg>
